<svg xmlns="http://www.w3.org/2000/svg" viewBox="0 0 1080 1200" font-family="'Noto Sans Arabic','Segoe UI','Tahoma',sans-serif" style="background:white;max-width:100%;height:auto;display:block;">
    
    <text x="1010" y="80" text-anchor="end" direction="rtl" font-size="40" font-weight="700" fill="#1F2937">المخطط الخطي</text>
    <line x1="540" y1="48" x2="540" y2="92" stroke="#6B7280" stroke-width="2"/>
    <text x="70" y="80" text-anchor="start" font-size="36" font-weight="700" fill="#1F2937">Line Chart</text>
    <line x1="60" y1="115" x2="1020" y2="115" stroke="#E5E7EB" stroke-width="1.5"/>
  

    <!-- gradient definition -->
    <defs>
      <linearGradient id="areaGrad" x1="0" y1="0" x2="0" y2="1">
        <stop offset="0%" stop-color="#6B46C1" stop-opacity="0.4"/>
        <stop offset="100%" stop-color="#6B46C1" stop-opacity="0.05"/>
      </linearGradient>
    </defs>

    
      <line x1="130" y1="680" x2="930" y2="680" stroke="#E5E7EB" stroke-width="1" stroke-dasharray="4,4"/>
      <text x="115" y="686" text-anchor="end" font-size="18" fill="#1F2937">0</text>
    
      <line x1="130" y1="584" x2="930" y2="584" stroke="#E5E7EB" stroke-width="1" stroke-dasharray="4,4"/>
      <text x="115" y="590" text-anchor="end" font-size="18" fill="#1F2937">20</text>
    
      <line x1="130" y1="488" x2="930" y2="488" stroke="#E5E7EB" stroke-width="1" stroke-dasharray="4,4"/>
      <text x="115" y="494" text-anchor="end" font-size="18" fill="#1F2937">40</text>
    
      <line x1="130" y1="392" x2="930" y2="392" stroke="#E5E7EB" stroke-width="1" stroke-dasharray="4,4"/>
      <text x="115" y="398" text-anchor="end" font-size="18" fill="#1F2937">60</text>
    
      <line x1="130" y1="296" x2="930" y2="296" stroke="#E5E7EB" stroke-width="1" stroke-dasharray="4,4"/>
      <text x="115" y="302" text-anchor="end" font-size="18" fill="#1F2937">80</text>
    
      <line x1="130" y1="200" x2="930" y2="200" stroke="#E5E7EB" stroke-width="1" stroke-dasharray="4,4"/>
      <text x="115" y="206" text-anchor="end" font-size="18" fill="#1F2937">100</text>
    

    <!-- المنطقة المظللة تحت الخط -->
    <path d="M 130,680 L 130,536 L 244.28571428571428,464 L 358.57142857142856,497.6 L 472.8571428571429,368 L 587.1428571428571,334.40000000000003 L 701.4285714285714,392 L 815.7142857142858,272 L 930,238.39999999999998 L 930,680 Z" fill="url(#areaGrad)"/>

    <!-- الخط نفسه -->
    <path d="M 130,536 L 244.28571428571428,464 L 358.57142857142856,497.6 L 472.8571428571429,368 L 587.1428571428571,334.40000000000003 L 701.4285714285714,392 L 815.7142857142858,272 L 930,238.39999999999998" fill="none" stroke="#6B46C1" stroke-width="3.5" stroke-linecap="round" stroke-linejoin="round"/>

    <circle cx="130" cy="536" r="7" fill="white" stroke="#6B46C1" stroke-width="3"/><circle cx="244.28571428571428" cy="464" r="7" fill="white" stroke="#6B46C1" stroke-width="3"/><circle cx="358.57142857142856" cy="497.6" r="7" fill="white" stroke="#6B46C1" stroke-width="3"/><circle cx="472.8571428571429" cy="368" r="7" fill="white" stroke="#6B46C1" stroke-width="3"/><circle cx="587.1428571428571" cy="334.40000000000003" r="7" fill="white" stroke="#6B46C1" stroke-width="3"/><circle cx="701.4285714285714" cy="392" r="7" fill="white" stroke="#6B46C1" stroke-width="3"/><circle cx="815.7142857142858" cy="272" r="7" fill="white" stroke="#6B46C1" stroke-width="3"/><circle cx="930" cy="238.39999999999998" r="7" fill="white" stroke="#6B46C1" stroke-width="3"/>
    <text x="130" y="518" text-anchor="middle" font-size="14" font-weight="700" fill="#6B46C1">30</text><text x="244.28571428571428" y="446" text-anchor="middle" font-size="14" font-weight="700" fill="#6B46C1">45</text><text x="358.57142857142856" y="479.6" text-anchor="middle" font-size="14" font-weight="700" fill="#6B46C1">38</text><text x="472.8571428571429" y="350" text-anchor="middle" font-size="14" font-weight="700" fill="#6B46C1">65</text><text x="587.1428571428571" y="316.40000000000003" text-anchor="middle" font-size="14" font-weight="700" fill="#6B46C1">72</text><text x="701.4285714285714" y="374" text-anchor="middle" font-size="14" font-weight="700" fill="#6B46C1">60</text><text x="815.7142857142858" y="254" text-anchor="middle" font-size="14" font-weight="700" fill="#6B46C1">85</text><text x="930" y="220.39999999999998" text-anchor="middle" font-size="14" font-weight="700" fill="#6B46C1">92</text>

    <line x1="130" y1="190" x2="130" y2="685" stroke="#1F2937" stroke-width="2"/>
    <line x1="125" y1="680" x2="940" y2="680" stroke="#1F2937" stroke-width="2"/>
    
      <text x="130" y="708" text-anchor="middle" direction="rtl" font-size="14" fill="#1F2937" font-weight="600">يناير</text>
      <text x="130" y="728" text-anchor="middle" font-size="12" fill="#6B7280">Jan</text>
    
      <text x="244.28571428571428" y="708" text-anchor="middle" direction="rtl" font-size="14" fill="#1F2937" font-weight="600">فبراير</text>
      <text x="244.28571428571428" y="728" text-anchor="middle" font-size="12" fill="#6B7280">Feb</text>
    
      <text x="358.57142857142856" y="708" text-anchor="middle" direction="rtl" font-size="14" fill="#1F2937" font-weight="600">مارس</text>
      <text x="358.57142857142856" y="728" text-anchor="middle" font-size="12" fill="#6B7280">Mar</text>
    
      <text x="472.8571428571429" y="708" text-anchor="middle" direction="rtl" font-size="14" fill="#1F2937" font-weight="600">أبريل</text>
      <text x="472.8571428571429" y="728" text-anchor="middle" font-size="12" fill="#6B7280">Apr</text>
    
      <text x="587.1428571428571" y="708" text-anchor="middle" direction="rtl" font-size="14" fill="#1F2937" font-weight="600">مايو</text>
      <text x="587.1428571428571" y="728" text-anchor="middle" font-size="12" fill="#6B7280">May</text>
    
      <text x="701.4285714285714" y="708" text-anchor="middle" direction="rtl" font-size="14" fill="#1F2937" font-weight="600">يونيو</text>
      <text x="701.4285714285714" y="728" text-anchor="middle" font-size="12" fill="#6B7280">Jun</text>
    
      <text x="815.7142857142858" y="708" text-anchor="middle" direction="rtl" font-size="14" fill="#1F2937" font-weight="600">يوليو</text>
      <text x="815.7142857142858" y="728" text-anchor="middle" font-size="12" fill="#6B7280">Jul</text>
    
      <text x="930" y="708" text-anchor="middle" direction="rtl" font-size="14" fill="#1F2937" font-weight="600">أغسطس</text>
      <text x="930" y="728" text-anchor="middle" font-size="12" fill="#6B7280">Aug</text>
    

    <text x="55" y="440" text-anchor="middle" direction="rtl" font-size="20" fill="#1F2937" transform="rotate(-90 55 440)">القيم / Values</text>
    <text x="530" y="770" text-anchor="middle" direction="rtl" font-size="20" fill="#1F2937">الزمن / Time</text>

    
    <rect x="50" y="950" width="980" height="220" rx="14" fill="#EFF6FF" stroke="#DBEAFE" stroke-width="2"/>
    <text x="600" y="980" text-anchor="end" direction="rtl" font-size="22" font-weight="700" fill="#6B46C1">خصائص</text>
    <text x="610" y="980" text-anchor="start" font-size="22" font-weight="700" fill="#6B46C1">| Key Features</text>
    <line x1="70" y1="998" x2="1010" y2="998" stroke="#DBEAFE" stroke-width="1.5"/>
  
      <circle cx="1000" cy="1028.25" r="5" fill="#6B46C1"/>
      <text x="980" y="1034.25" text-anchor="end" direction="rtl" font-size="19" fill="#1F2937">يُظهر التغيّر عبر الزمن أو بيانات متسلسلة</text>
    
      <circle cx="80" cy="1028.25" r="5" fill="#6B46C1"/>
      <text x="100" y="1034.25" text-anchor="start" font-size="17" fill="#1F2937">Shows change over time or sequential data</text>
    <line x1="70" y1="1048.5" x2="1010" y2="1048.5" stroke="#E5E7EB" stroke-width="0.8" stroke-dasharray="3,3"/>
      <circle cx="1000" cy="1068.75" r="5" fill="#6B46C1"/>
      <text x="980" y="1074.75" text-anchor="end" direction="rtl" font-size="19" fill="#1F2937">النقاط متصلة بخط (تُظهر الاتجاه)</text>
    
      <circle cx="80" cy="1068.75" r="5" fill="#6B46C1"/>
      <text x="100" y="1074.75" text-anchor="start" font-size="17" fill="#1F2937">Points connected by line (shows trend)</text>
    <line x1="70" y1="1089" x2="1010" y2="1089" stroke="#E5E7EB" stroke-width="0.8" stroke-dasharray="3,3"/>
      <circle cx="1000" cy="1109.25" r="5" fill="#6B46C1"/>
      <text x="980" y="1115.25" text-anchor="end" direction="rtl" font-size="19" fill="#1F2937">مثالي للسلاسل الزمنية</text>
    
      <circle cx="80" cy="1109.25" r="5" fill="#6B46C1"/>
      <text x="100" y="1115.25" text-anchor="start" font-size="17" fill="#1F2937">Ideal for time-series data</text>
    <line x1="70" y1="1129.5" x2="1010" y2="1129.5" stroke="#E5E7EB" stroke-width="0.8" stroke-dasharray="3,3"/>
      <circle cx="1000" cy="1149.75" r="5" fill="#6B46C1"/>
      <text x="980" y="1155.75" text-anchor="end" direction="rtl" font-size="19" fill="#1F2937">يكشف الذروات والقاع والاتجاهات</text>
    
      <circle cx="80" cy="1149.75" r="5" fill="#6B46C1"/>
      <text x="100" y="1155.75" text-anchor="start" font-size="17" fill="#1F2937">Reveals peaks, troughs, and trends</text>
    <line x1="540" y1="1006" x2="540" y2="1160" stroke="#DBEAFE" stroke-width="1" stroke-dasharray="3,3"/>
  </svg>